<?xml version="1.0" encoding="UTF-8"?>
<svg xmlns="http://www.w3.org/2000/svg" xmlns:xlink="http://www.w3.org/1999/xlink" viewBox="0 0 240 240" width="240px" height="240px">
<g id="surface1402730">
<path style="fill-rule:nonzero;fill:rgb(93.333334%,24.313726%,32.941177%);fill-opacity:1;stroke-width:10;stroke-linecap:butt;stroke-linejoin:round;stroke:rgb(80.000001%,80.000001%,80.000001%);stroke-opacity:1;stroke-miterlimit:10;" d="M 25.799311 49.880182 C 25.799311 51.779192 24.259895 53.318608 22.360885 53.318608 C 20.458904 53.318608 18.919487 51.779192 18.919487 49.880182 C 18.919487 47.978201 20.458904 46.438784 22.360885 46.438784 C 24.259895 46.438784 25.799311 47.978201 25.799311 49.880182 Z M 25.799311 49.880182 " transform="matrix(1.314419,0,0,1.314419,6.96,6.96)"/>
<path style="fill-rule:nonzero;fill:rgb(94.509804%,73.725492%,9.803922%);fill-opacity:1;stroke-width:10;stroke-linecap:butt;stroke-linejoin:round;stroke:rgb(80.000001%,80.000001%,80.000001%);stroke-opacity:1;stroke-miterlimit:10;" d="M 134.158773 22.360885 C 134.158773 23.308904 133.389064 24.078612 132.441045 24.078612 C 131.490055 24.078612 130.720346 23.308904 130.720346 22.360885 C 130.720346 21.409894 131.490055 20.640186 132.441045 20.640186 C 133.389064 20.640186 134.158773 21.409894 134.158773 22.360885 Z M 134.158773 22.360885 " transform="matrix(1.314419,0,0,1.314419,6.96,6.96)"/>
<path style="fill-rule:nonzero;fill:rgb(98.823529%,87.843138%,63.529414%);fill-opacity:1;stroke-width:10;stroke-linecap:butt;stroke-linejoin:round;stroke:rgb(80.000001%,80.000001%,80.000001%);stroke-opacity:1;stroke-miterlimit:10;" d="M 149.63912 86.000003 C 149.63912 121.148029 121.148029 149.63912 86.000003 149.63912 C 50.851976 149.63912 22.360885 121.148029 22.360885 86.000003 C 22.360885 50.851976 50.851976 22.360885 86.000003 22.360885 C 121.148029 22.360885 149.63912 50.851976 149.63912 86.000003 Z M 149.63912 86.000003 " transform="matrix(1.314419,0,0,1.314419,6.96,6.96)"/>
<path style="fill-rule:nonzero;fill:rgb(94.509804%,73.725492%,9.803922%);fill-opacity:1;stroke-width:10;stroke-linecap:butt;stroke-linejoin:round;stroke:rgb(80.000001%,80.000001%,80.000001%);stroke-opacity:1;stroke-miterlimit:10;" d="M 149.63912 25.799311 C 149.63912 29.600303 146.560287 32.679136 142.759296 32.679136 C 138.961276 32.679136 135.879472 29.600303 135.879472 25.799311 C 135.879472 22.001292 138.961276 18.919487 142.759296 18.919487 C 146.560287 18.919487 149.63912 22.001292 149.63912 25.799311 Z M 149.63912 25.799311 " transform="matrix(1.314419,0,0,1.314419,6.96,6.96)"/>
<path style="fill-rule:nonzero;fill:rgb(93.333334%,24.313726%,32.941177%);fill-opacity:1;stroke-width:10;stroke-linecap:butt;stroke-linejoin:round;stroke:rgb(80.000001%,80.000001%,80.000001%);stroke-opacity:1;stroke-miterlimit:10;" d="M 153.080518 41.279659 C 153.080518 43.181641 151.541102 44.721057 149.63912 44.721057 C 147.74011 44.721057 146.200694 43.181641 146.200694 41.279659 C 146.200694 39.380649 147.74011 37.841233 149.63912 37.841233 C 151.541102 37.841233 153.080518 39.380649 153.080518 41.279659 Z M 153.080518 41.279659 " transform="matrix(1.314419,0,0,1.314419,6.96,6.96)"/>
<path style="fill-rule:nonzero;fill:rgb(98.431373%,80.392158%,34.901962%);fill-opacity:1;stroke-width:10;stroke-linecap:butt;stroke-linejoin:round;stroke:rgb(80.000001%,80.000001%,80.000001%);stroke-opacity:1;stroke-miterlimit:10;" d="M 142.759296 130.720346 C 142.759296 132.619356 141.219879 134.158773 139.32087 134.158773 C 137.418888 134.158773 135.879472 132.619356 135.879472 130.720346 C 135.879472 128.818365 137.418888 127.278948 139.32087 127.278948 C 141.219879 127.278948 142.759296 128.818365 142.759296 130.720346 Z M 32.679136 108.360175 C 32.679136 112.158194 29.600303 115.239999 25.799311 115.239999 C 22.001292 115.239999 18.919487 112.158194 18.919487 108.360175 C 18.919487 104.559183 22.001292 101.48035 25.799311 101.48035 C 29.600303 101.48035 32.679136 104.559183 32.679136 108.360175 Z M 32.679136 108.360175 " transform="matrix(1.314419,0,0,1.314419,6.96,6.96)"/>
<path style="fill-rule:nonzero;fill:rgb(93.333334%,24.313726%,32.941177%);fill-opacity:1;stroke-width:10;stroke-linecap:butt;stroke-linejoin:round;stroke:rgb(80.000001%,80.000001%,80.000001%);stroke-opacity:1;stroke-miterlimit:10;" d="M 46.438784 149.63912 C 46.438784 151.541102 44.899368 153.080518 43.000358 153.080518 C 41.098376 153.080518 39.55896 151.541102 39.55896 149.63912 C 39.55896 147.74011 41.098376 146.200694 43.000358 146.200694 C 44.899368 146.200694 46.438784 147.74011 46.438784 149.63912 Z M 46.438784 149.63912 " transform="matrix(1.314419,0,0,1.314419,6.96,6.96)"/>
<path style="fill-rule:nonzero;fill:rgb(100%,100%,100%);fill-opacity:1;stroke-width:10;stroke-linecap:butt;stroke-linejoin:round;stroke:rgb(80.000001%,80.000001%,80.000001%);stroke-opacity:1;stroke-miterlimit:10;" d="M 36.120534 92.020963 C 36.120534 94.395469 34.194777 96.321225 31.820272 96.321225 C 29.445767 96.321225 27.52001 94.395469 27.52001 92.020963 C 27.52001 89.643486 29.445767 87.720702 31.820272 87.720702 C 34.194777 87.720702 36.120534 89.643486 36.120534 92.020963 Z M 36.120534 92.020963 " transform="matrix(1.314419,0,0,1.314419,6.96,6.96)"/>
<path style="fill-rule:nonzero;fill:rgb(94.509804%,73.725492%,9.803922%);fill-opacity:1;stroke-width:10;stroke-linecap:butt;stroke-linejoin:round;stroke:rgb(80.000001%,80.000001%,80.000001%);stroke-opacity:1;stroke-miterlimit:10;" d="M 37.841233 115.239999 C 37.841233 116.188018 37.068553 116.960698 36.120534 116.960698 C 35.169543 116.960698 34.399835 116.188018 34.399835 115.239999 C 34.399835 114.29198 35.169543 113.5193 36.120534 113.5193 C 37.068553 113.5193 37.841233 114.29198 37.841233 115.239999 Z M 37.841233 115.239999 " transform="matrix(1.314419,0,0,1.314419,6.96,6.96)"/>
<path style="fill-rule:nonzero;fill:rgb(100%,100%,100%);fill-opacity:1;stroke-width:10;stroke-linecap:butt;stroke-linejoin:round;stroke:rgb(80.000001%,80.000001%,80.000001%);stroke-opacity:1;stroke-miterlimit:10;" d="M 139.32087 58.480706 C 139.32087 59.428725 138.54819 60.201405 137.600171 60.201405 C 136.64918 60.201405 135.879472 59.428725 135.879472 58.480706 C 135.879472 57.529715 136.64918 56.760007 137.600171 56.760007 C 138.54819 56.760007 139.32087 57.529715 139.32087 58.480706 Z M 139.32087 58.480706 " transform="matrix(1.314419,0,0,1.314419,6.96,6.96)"/>
<path style="fill-rule:nonzero;fill:rgb(94.509804%,73.725492%,9.803922%);fill-opacity:1;stroke-width:10;stroke-linecap:butt;stroke-linejoin:round;stroke:rgb(80.000001%,80.000001%,80.000001%);stroke-opacity:1;stroke-miterlimit:10;" d="M 43.000358 86.000003 C 43.000358 62.251979 62.251979 43.000358 86.000003 43.000358 C 109.748027 43.000358 128.999647 62.251979 128.999647 86.000003 C 128.999647 109.748027 109.748027 128.999647 86.000003 128.999647 C 62.251979 128.999647 43.000358 109.748027 43.000358 86.000003 Z M 43.000358 86.000003 " transform="matrix(1.314419,0,0,1.314419,6.96,6.96)"/>
<path style="fill-rule:nonzero;fill:rgb(27.843139%,16.862746%,16.078432%);fill-opacity:1;stroke-width:10;stroke-linecap:butt;stroke-linejoin:round;stroke:rgb(80.000001%,80.000001%,80.000001%);stroke-opacity:1;stroke-miterlimit:10;" d="M 86.000003 45.407554 C 63.619028 45.407554 45.407554 63.619028 45.407554 86.000003 C 45.407554 108.380977 63.619028 126.592452 86.000003 126.592452 C 108.380977 126.592452 126.592452 108.380977 126.592452 86.000003 C 126.592452 63.619028 108.380977 45.407554 86.000003 45.407554 M 86.000003 43.000358 C 109.748027 43.000358 128.999647 62.251979 128.999647 86.000003 C 128.999647 109.748027 109.748027 128.999647 86.000003 128.999647 C 62.251979 128.999647 43.000358 109.748027 43.000358 86.000003 C 43.000358 62.251979 62.251979 43.000358 86.000003 43.000358 Z M 86.000003 43.000358 " transform="matrix(1.314419,0,0,1.314419,6.96,6.96)"/>
<path style="fill-rule:nonzero;fill:rgb(37.64706%,36.862746%,37.64706%);fill-opacity:1;stroke-width:10;stroke-linecap:butt;stroke-linejoin:round;stroke:rgb(80.000001%,80.000001%,80.000001%);stroke-opacity:1;stroke-miterlimit:10;" d="M 51.600881 86.000003 C 51.600881 67.000989 67.000989 51.600881 86.000003 51.600881 C 104.999016 51.600881 120.399124 67.000989 120.399124 86.000003 C 120.399124 104.999016 104.999016 120.399124 86.000003 120.399124 C 67.000989 120.399124 51.600881 104.999016 51.600881 86.000003 Z M 51.600881 86.000003 " transform="matrix(1.314419,0,0,1.314419,6.96,6.96)"/>
<path style="fill-rule:nonzero;fill:rgb(100%,100%,100%);fill-opacity:1;stroke-width:10;stroke-linecap:butt;stroke-linejoin:round;stroke:rgb(80.000001%,80.000001%,80.000001%);stroke-opacity:1;stroke-miterlimit:10;" d="M 80.448594 113.644117 L 65.318924 98.517419 C 62.546191 95.744687 60.094418 93.471224 58.049788 91.610849 L 63.865691 85.794945 L 67.182272 88.475551 L 67.318977 88.338846 C 66.864284 85.973256 66.727579 81.931545 70.54343 78.115694 C 73.40829 75.250834 77.132013 74.436549 80.404016 75.797654 L 80.493171 75.708499 C 80.133578 73.708446 80.267311 71.845099 80.677426 70.163034 C 81.176696 68.21053 82.175236 66.483888 83.809752 64.8464 C 88.083267 60.575857 94.306313 60.349997 100.939474 66.983158 L 114.024514 80.068197 L 107.302197 86.793486 L 95.215698 74.706987 C 91.991245 71.482533 89.081807 70.665276 86.855894 72.891188 C 85.265957 74.481126 85.221379 76.707039 86.083214 78.47826 C 86.401202 79.161784 87.037177 79.979042 87.583997 80.52289 L 100.576909 93.515802 L 93.851621 100.24109 L 81.402556 87.792026 C 78.585246 84.974716 75.675808 84.065331 73.497445 86.246666 C 71.723253 88.017886 72.044212 90.428054 72.769343 91.973414 C 73.090302 92.746094 73.678728 93.426647 74.225547 93.970495 L 87.173882 106.921801 Z M 80.448594 113.644117 " transform="matrix(1.314419,0,0,1.314419,6.96,6.96)"/>
<path style="fill-rule:nonzero;fill:rgb(27.843139%,16.862746%,16.078432%);fill-opacity:1;stroke-width:10;stroke-linecap:butt;stroke-linejoin:round;stroke:rgb(80.000001%,80.000001%,80.000001%);stroke-opacity:1;stroke-miterlimit:10;" d="M 80.448594 114.505953 C 80.228677 114.505953 80.00876 114.419769 79.839365 114.253346 L 64.709695 99.123676 C 61.922104 96.333112 59.48519 94.080453 57.470278 92.243852 C 57.294939 92.083372 57.193896 91.860484 57.187952 91.62868 C 57.184981 91.390932 57.274136 91.165072 57.440559 90.998648 L 63.256463 85.182745 C 63.568506 84.870701 64.064805 84.843954 64.406567 85.123308 L 66.24614 86.612203 C 66.091604 83.209439 67.348695 80.091972 69.934201 77.506466 C 72.63561 74.805058 76.19291 73.74708 79.4768 74.582169 C 79.343067 73.051668 79.464913 71.500364 79.839365 69.957976 C 80.386185 67.821219 81.485768 65.951927 83.200523 64.237172 C 88.276437 59.161258 95.132486 59.960685 101.548703 66.370958 L 114.633742 79.455997 C 114.969561 79.791816 114.969561 80.338635 114.633742 80.674454 L 107.908454 87.39677 C 107.584523 87.720702 107.013928 87.720702 106.692969 87.39677 L 94.60647 75.313243 C 91.631651 72.338425 89.2304 71.726225 87.462151 73.494473 C 86.050524 74.909072 86.222891 76.802138 86.855894 78.097863 C 87.105529 78.632796 87.649377 79.372785 88.190253 79.91069 L 101.186137 92.906574 C 101.521956 93.242392 101.521956 93.789212 101.186137 94.125031 L 94.460849 100.847347 C 94.125031 101.183166 93.581183 101.183166 93.245364 100.847347 L 80.7963 88.401254 C 78.918093 86.523048 76.231544 84.731024 74.106674 86.855894 C 72.706934 88.255634 72.903076 90.22894 73.550938 91.604905 C 73.848123 92.333007 74.424661 92.957095 74.834776 93.364238 L 87.78311 106.312572 C 88.118929 106.648391 88.118929 107.195211 87.78311 107.531029 L 81.057822 114.253346 C 80.888427 114.419769 80.66851 114.505953 80.448594 114.505953 Z M 59.294991 91.58113 C 61.188058 93.313716 63.41397 95.394009 65.928152 97.908191 L 80.448594 112.428632 L 85.958397 106.921801 L 73.616319 94.579723 C 73.10219 94.065594 72.377059 93.272111 71.97586 92.300317 C 71.093221 90.431026 70.858446 87.67018 72.888217 85.640409 C 75.295412 83.233214 78.620908 83.794893 82.011785 87.185769 L 93.854593 99.028577 L 99.361424 93.518774 L 86.974768 81.132118 C 86.454695 80.612045 85.70579 79.699688 85.304591 78.843797 C 84.190148 76.552503 84.558657 73.972941 86.246666 72.28196 C 87.696927 70.834671 90.864915 69.140718 95.824927 74.10073 L 107.302197 85.578 L 112.812 80.071169 L 100.333218 67.592386 C 94.597554 61.859695 88.79651 61.081071 84.421952 65.458601 C 82.906311 66.971271 81.982066 68.534462 81.509543 70.379978 C 81.090513 72.106621 81.031076 73.848123 81.340148 75.550991 C 81.390669 75.830344 81.301514 76.11267 81.1024 76.311784 C 80.855737 76.561419 80.3951 76.727842 80.071169 76.591137 C 77.069604 75.33999 73.735193 76.136445 71.152658 78.721951 C 68.475025 81.396613 67.470541 84.576488 68.162981 88.172422 C 68.216474 88.454748 68.127319 88.740045 67.925233 88.942131 L 67.788528 89.078835 C 67.479456 89.393851 66.983158 89.420598 66.638424 89.141244 L 63.925128 86.948022 L 59.29202 91.578158 Z M 59.294991 91.58113 " transform="matrix(1.314419,0,0,1.314419,6.96,6.96)"/>
<path style="fill-rule:nonzero;fill:rgb(27.843139%,16.862746%,16.078432%);fill-opacity:1;stroke-width:10;stroke-linecap:butt;stroke-linejoin:round;stroke:rgb(80.000001%,80.000001%,80.000001%);stroke-opacity:1;stroke-miterlimit:10;" d="M 55.886284 70.216527 C 55.746607 70.216527 55.600986 70.180865 55.470225 70.10954 C 55.054167 69.877736 54.905574 69.354691 55.134407 68.938633 C 56.109172 67.1793 57.244417 65.494263 58.501508 63.925128 C 58.798693 63.556619 59.342541 63.497182 59.71105 63.794367 C 60.082531 64.091551 60.138996 64.635399 59.841811 65.003908 C 58.644157 66.492803 57.565377 68.0976 56.638161 69.77075 C 56.483625 70.056047 56.189412 70.216527 55.886284 70.216527 Z M 55.886284 70.216527 " transform="matrix(1.314419,0,0,1.314419,6.96,6.96)"/>
<path style="fill-rule:nonzero;fill:rgb(27.843139%,16.862746%,16.078432%);fill-opacity:1;stroke-width:10;stroke-linecap:butt;stroke-linejoin:round;stroke:rgb(80.000001%,80.000001%,80.000001%);stroke-opacity:1;stroke-miterlimit:10;" d="M 58.483677 107.510226 C 58.225127 107.510226 57.966576 107.391353 57.797181 107.165492 C 53.181904 101.025658 50.739046 93.706 50.739046 86.000003 C 50.739046 81.461993 51.588994 77.042858 53.268087 72.867414 C 53.443426 72.42758 53.939724 72.213607 54.385501 72.391918 C 54.825335 72.567257 55.039308 73.069499 54.860997 73.509332 C 53.268087 77.479719 52.459745 81.68191 52.459745 86.000003 C 52.459745 93.331548 54.780757 100.291612 59.173146 106.134262 C 59.458443 106.514658 59.381175 107.052562 59.000779 107.337859 C 58.846243 107.453761 58.66496 107.510226 58.483677 107.510226 Z M 58.483677 107.510226 " transform="matrix(1.314419,0,0,1.314419,6.96,6.96)"/>
<path style="fill-rule:nonzero;fill:rgb(27.843139%,16.862746%,16.078432%);fill-opacity:1;stroke-width:10;stroke-linecap:butt;stroke-linejoin:round;stroke:rgb(80.000001%,80.000001%,80.000001%);stroke-opacity:1;stroke-miterlimit:10;" d="M 86.000003 121.260959 C 77.363817 121.260959 69.057507 118.10783 62.605628 112.381083 C 62.249007 112.066067 62.216316 111.522219 62.531332 111.165597 C 62.846348 110.808976 63.393168 110.779257 63.746817 111.094273 C 69.88368 116.541667 77.785819 119.54026 86.000003 119.54026 C 104.493802 119.54026 119.54026 104.493802 119.54026 86.000003 C 119.54026 67.506203 104.493802 52.459745 86.000003 52.459745 C 80.10386 52.459745 74.302815 54.011049 69.229874 56.947233 C 68.816787 57.184981 68.29077 57.042332 68.055994 56.632217 C 67.815275 56.222102 67.957924 55.696086 68.368038 55.458338 C 73.705474 52.373561 79.800731 50.739046 86.000003 50.739046 C 105.441821 50.739046 121.260959 66.558184 121.260959 86.000003 C 121.260959 105.441821 105.441821 121.260959 86.000003 121.260959 Z M 86.000003 121.260959 " transform="matrix(1.314419,0,0,1.314419,6.96,6.96)"/>
<path style=" stroke:none;fill-rule:nonzero;fill:rgb(90.196079%,49.411765%,13.333334%);fill-opacity:1;" d="M 36.351562 68 C 33.851562 68 31.828125 70.023438 31.828125 72.523438 C 31.828125 75.019531 33.851562 77.042969 36.351562 77.042969 C 38.847656 77.042969 40.871094 75.019531 40.871094 72.523438 C 40.871094 70.023438 38.847656 68 36.351562 68 Z M 36.351562 68 "/>
<path style=" stroke:none;fill-rule:nonzero;fill:rgb(20.392157%,28.627452%,36.862746%);fill-opacity:1;" d="M 181.042969 34.089844 C 179.792969 34.089844 178.78125 35.101562 178.78125 36.351562 C 178.78125 37.597656 179.792969 38.609375 181.042969 38.609375 C 182.289062 38.609375 183.300781 37.597656 183.300781 36.351562 C 183.300781 35.101562 182.289062 34.089844 181.042969 34.089844 Z M 181.042969 34.089844 "/>
<path style=" stroke:none;fill-rule:nonzero;fill:rgb(98.823529%,87.843138%,63.529414%);fill-opacity:1;" d="M 120 36.351562 C 73.800781 36.351562 36.351562 73.800781 36.351562 120 C 36.351562 166.199219 73.800781 203.648438 120 203.648438 C 166.199219 203.648438 203.648438 166.199219 203.648438 120 C 203.648438 73.800781 166.199219 36.351562 120 36.351562 Z M 120 36.351562 "/>
<path style=" stroke:none;fill-rule:nonzero;fill:rgb(20.392157%,28.627452%,36.862746%);fill-opacity:1;" d="M 194.605469 31.828125 C 189.613281 31.828125 185.5625 35.878906 185.5625 40.871094 C 185.5625 45.867188 189.613281 49.914062 194.605469 49.914062 C 199.601562 49.914062 203.648438 45.867188 203.648438 40.871094 C 203.648438 35.878906 199.601562 31.828125 194.605469 31.828125 Z M 194.605469 31.828125 "/>
<path style=" stroke:none;fill-rule:nonzero;fill:rgb(90.196079%,49.411765%,13.333334%);fill-opacity:1;" d="M 203.648438 56.699219 C 201.152344 56.699219 199.128906 58.722656 199.128906 61.21875 C 199.128906 63.71875 201.152344 65.742188 203.648438 65.742188 C 206.148438 65.742188 208.171875 63.71875 208.171875 61.21875 C 208.171875 58.722656 206.148438 56.699219 203.648438 56.699219 Z M 203.648438 56.699219 "/>
<path style=" stroke:none;fill-rule:nonzero;fill:rgb(18.039216%,80.000001%,44.313726%);fill-opacity:1;" d="M 190.085938 174.257812 C 187.585938 174.257812 185.5625 176.28125 185.5625 178.78125 C 185.5625 181.277344 187.585938 183.300781 190.085938 183.300781 C 192.582031 183.300781 194.605469 181.277344 194.605469 178.78125 C 194.605469 176.28125 192.582031 174.257812 190.085938 174.257812 Z M 40.871094 140.347656 C 35.878906 140.347656 31.828125 144.394531 31.828125 149.390625 C 31.828125 154.382812 35.878906 158.433594 40.871094 158.433594 C 45.867188 158.433594 49.914062 154.382812 49.914062 149.390625 C 49.914062 144.394531 45.867188 140.347656 40.871094 140.347656 Z M 40.871094 140.347656 "/>
<path style=" stroke:none;fill-rule:nonzero;fill:rgb(90.196079%,49.411765%,13.333334%);fill-opacity:1;" d="M 63.480469 199.128906 C 60.980469 199.128906 58.957031 201.152344 58.957031 203.648438 C 58.957031 206.148438 60.980469 208.171875 63.480469 208.171875 C 65.976562 208.171875 68 206.148438 68 203.648438 C 68 201.152344 65.976562 199.128906 63.480469 199.128906 Z M 63.480469 199.128906 "/>
<path style=" stroke:none;fill-rule:nonzero;fill:rgb(100%,100%,100%);fill-opacity:1;" d="M 48.785156 122.261719 C 45.664062 122.261719 43.132812 124.789062 43.132812 127.914062 C 43.132812 131.035156 45.664062 133.566406 48.785156 133.566406 C 51.90625 133.566406 54.4375 131.035156 54.4375 127.914062 C 54.4375 124.789062 51.90625 122.261719 48.785156 122.261719 Z M 48.785156 122.261719 "/>
<path style=" stroke:none;fill-rule:nonzero;fill:rgb(20.392157%,28.627452%,36.862746%);fill-opacity:1;" d="M 54.4375 156.171875 C 53.1875 156.171875 52.175781 157.1875 52.175781 158.433594 C 52.175781 159.679688 53.1875 160.695312 54.4375 160.695312 C 55.683594 160.695312 56.699219 159.679688 56.699219 158.433594 C 56.699219 157.1875 55.683594 156.171875 54.4375 156.171875 Z M 54.4375 156.171875 "/>
<path style=" stroke:none;fill-rule:nonzero;fill:rgb(100%,100%,100%);fill-opacity:1;" d="M 187.824219 81.566406 C 186.574219 81.566406 185.5625 82.578125 185.5625 83.828125 C 185.5625 85.074219 186.574219 86.089844 187.824219 86.089844 C 189.070312 86.089844 190.085938 85.074219 190.085938 83.828125 C 190.085938 82.578125 189.070312 81.566406 187.824219 81.566406 Z M 187.824219 81.566406 "/>
<path style=" stroke:none;fill-rule:nonzero;fill:rgb(20.392157%,28.627452%,36.862746%);fill-opacity:1;" d="M 176.519531 120 C 176.519531 151.214844 151.214844 176.519531 120 176.519531 C 88.785156 176.519531 63.480469 151.214844 63.480469 120 C 63.480469 88.785156 88.785156 63.480469 120 63.480469 C 151.214844 63.480469 176.519531 88.785156 176.519531 120 Z M 176.519531 120 "/>
<path style=" stroke:none;fill-rule:nonzero;fill:rgb(90.196079%,49.411765%,13.333334%);fill-opacity:1;" d="M 120 66.644531 C 149.417969 66.644531 173.355469 90.582031 173.355469 120 C 173.355469 149.417969 149.417969 173.355469 120 173.355469 C 90.582031 173.355469 66.644531 149.417969 66.644531 120 C 66.644531 90.582031 90.582031 66.644531 120 66.644531 M 120 63.480469 C 88.785156 63.480469 63.480469 88.785156 63.480469 120 C 63.480469 151.214844 88.785156 176.519531 120 176.519531 C 151.214844 176.519531 176.519531 151.214844 176.519531 120 C 176.519531 88.785156 151.214844 63.480469 120 63.480469 Z M 120 63.480469 "/>
<path style=" stroke:none;fill-rule:nonzero;fill:rgb(20.392157%,28.627452%,36.862746%);fill-opacity:1;" d="M 165.214844 120 C 165.214844 144.972656 144.972656 165.214844 120 165.214844 C 95.027344 165.214844 74.785156 144.972656 74.785156 120 C 74.785156 95.027344 95.027344 74.785156 120 74.785156 C 144.972656 74.785156 165.214844 95.027344 165.214844 120 Z M 165.214844 120 "/>
<path style=" stroke:none;fill-rule:nonzero;fill:rgb(100%,100%,100%);fill-opacity:1;" d="M 112.703125 156.335938 L 121.542969 147.5 L 104.523438 130.476562 C 103.804688 129.761719 103.03125 128.867188 102.609375 127.851562 C 101.65625 125.820312 101.234375 122.652344 103.566406 120.324219 C 106.429688 117.457031 110.253906 118.652344 113.957031 122.355469 L 130.320312 138.71875 L 139.160156 129.878906 L 122.082031 112.800781 C 121.363281 112.085938 120.527344 111.011719 120.109375 110.113281 C 118.976562 107.785156 119.035156 104.859375 121.125 102.769531 C 124.050781 99.84375 127.875 100.917969 132.113281 105.15625 L 148 121.042969 L 156.835938 112.203125 L 139.636719 95.003906 C 130.917969 86.285156 122.738281 86.582031 117.121094 92.195312 C 114.972656 94.347656 113.660156 96.617188 113.003906 99.183594 C 112.464844 101.394531 112.289062 103.84375 112.761719 106.472656 L 112.644531 106.589844 C 108.34375 104.800781 103.449219 105.871094 99.683594 109.636719 C 94.667969 114.652344 94.847656 119.964844 95.445312 123.074219 L 95.265625 123.253906 L 90.90625 119.730469 L 83.261719 127.375 C 85.949219 129.820312 89.171875 132.808594 92.816406 136.453125 Z M 112.703125 156.335938 "/>
<path style=" stroke:none;fill-rule:nonzero;fill:rgb(90.196079%,49.411765%,13.333334%);fill-opacity:1;" d="M 112.703125 157.46875 C 112.414062 157.46875 112.125 157.355469 111.902344 157.136719 L 92.015625 137.25 C 88.351562 133.582031 85.148438 130.621094 82.5 128.207031 C 82.269531 127.996094 82.136719 127.703125 82.128906 127.398438 C 82.125 127.085938 82.242188 126.789062 82.460938 126.570312 L 90.105469 118.925781 C 90.515625 118.515625 91.167969 118.480469 91.617188 118.847656 L 94.035156 120.804688 C 93.832031 116.332031 95.484375 112.234375 98.882812 108.835938 C 102.433594 105.285156 107.109375 103.894531 111.425781 104.992188 C 111.25 102.980469 111.410156 100.941406 111.902344 98.914062 C 112.621094 96.105469 114.066406 93.648438 116.320312 91.394531 C 122.992188 84.722656 132.003906 85.773438 140.4375 94.199219 L 157.636719 111.398438 C 158.078125 111.839844 158.078125 112.558594 157.636719 113 L 148.796875 121.835938 C 148.371094 122.261719 147.621094 122.261719 147.199219 121.835938 L 131.3125 105.953125 C 127.402344 102.042969 124.246094 101.238281 121.921875 103.5625 C 120.066406 105.421875 120.292969 107.910156 121.125 109.613281 C 121.453125 110.316406 122.167969 111.289062 122.878906 111.996094 L 139.960938 129.078125 C 140.402344 129.519531 140.402344 130.238281 139.960938 130.679688 L 131.121094 139.515625 C 130.679688 139.957031 129.964844 139.957031 129.523438 139.515625 L 113.160156 123.15625 C 110.691406 120.6875 107.160156 118.332031 104.367188 121.125 C 102.527344 122.964844 102.785156 125.558594 103.636719 127.367188 C 104.027344 128.324219 104.785156 129.144531 105.324219 129.679688 L 122.34375 146.699219 C 122.785156 147.140625 122.785156 147.859375 122.34375 148.300781 L 113.503906 157.136719 C 113.28125 157.355469 112.992188 157.46875 112.703125 157.46875 Z M 84.898438 127.335938 C 87.386719 129.613281 90.3125 132.347656 93.617188 135.652344 L 112.703125 154.738281 L 119.945312 147.5 L 103.722656 131.277344 C 103.046875 130.601562 102.09375 129.558594 101.566406 128.28125 C 100.40625 125.824219 100.097656 122.195312 102.765625 119.527344 C 105.929688 116.363281 110.300781 117.101562 114.757812 121.558594 L 130.324219 137.125 L 137.5625 129.882812 L 121.28125 113.601562 C 120.597656 112.917969 119.613281 111.71875 119.085938 110.59375 C 117.621094 107.582031 118.105469 104.191406 120.324219 101.96875 C 122.230469 100.066406 126.394531 97.839844 132.914062 104.359375 L 148 119.445312 L 155.242188 112.207031 L 138.839844 95.804688 C 131.300781 88.269531 123.675781 87.246094 117.925781 93 C 115.933594 94.988281 114.71875 97.042969 114.097656 99.46875 C 113.546875 101.738281 113.46875 104.027344 113.875 106.265625 C 113.941406 106.632812 113.824219 107.003906 113.5625 107.265625 C 113.238281 107.59375 112.632812 107.8125 112.207031 107.632812 C 108.261719 105.988281 103.878906 107.035156 100.484375 110.433594 C 96.964844 113.949219 95.644531 118.128906 96.554688 122.855469 C 96.625 123.226562 96.507812 123.601562 96.242188 123.867188 L 96.0625 124.046875 C 95.65625 124.460938 95.003906 124.496094 94.550781 124.128906 L 90.984375 121.246094 L 84.894531 127.332031 Z M 84.898438 127.335938 "/>
<path style=" stroke:none;fill-rule:nonzero;fill:rgb(90.196079%,49.411765%,13.333334%);fill-opacity:1;" d="M 80.417969 99.253906 C 80.234375 99.253906 80.042969 99.207031 79.871094 99.113281 C 79.324219 98.808594 79.128906 98.121094 79.429688 97.574219 C 80.710938 95.261719 82.203125 93.046875 83.855469 90.984375 C 84.246094 90.5 84.960938 90.421875 85.445312 90.8125 C 85.933594 91.203125 86.007812 91.917969 85.617188 92.402344 C 84.042969 94.359375 82.625 96.46875 81.40625 98.667969 C 81.203125 99.042969 80.816406 99.253906 80.417969 99.253906 Z M 80.417969 99.253906 "/>
<path style=" stroke:none;fill-rule:nonzero;fill:rgb(90.196079%,49.411765%,13.333334%);fill-opacity:1;" d="M 83.832031 148.273438 C 83.492188 148.273438 83.152344 148.117188 82.929688 147.820312 C 76.863281 139.75 73.652344 130.128906 73.652344 120 C 73.652344 114.035156 74.769531 108.226562 76.976562 102.738281 C 77.207031 102.160156 77.859375 101.878906 78.445312 102.113281 C 79.023438 102.34375 79.304688 103.003906 79.070312 103.582031 C 76.976562 108.800781 75.914062 114.324219 75.914062 120 C 75.914062 129.636719 78.964844 138.785156 84.738281 146.464844 C 85.113281 146.964844 85.011719 147.671875 84.511719 148.046875 C 84.308594 148.199219 84.070312 148.273438 83.832031 148.273438 Z M 83.832031 148.273438 "/>
<path style=" stroke:none;fill-rule:nonzero;fill:rgb(90.196079%,49.411765%,13.333334%);fill-opacity:1;" d="M 120 166.347656 C 108.648438 166.347656 97.730469 162.203125 89.25 154.675781 C 88.78125 154.261719 88.738281 153.546875 89.152344 153.078125 C 89.566406 152.609375 90.285156 152.570312 90.75 152.984375 C 98.816406 160.144531 109.203125 164.085938 120 164.085938 C 144.308594 164.085938 164.085938 144.308594 164.085938 120 C 164.085938 95.691406 144.308594 75.914062 120 75.914062 C 112.25 75.914062 104.625 77.953125 97.957031 81.8125 C 97.414062 82.125 96.722656 81.9375 96.414062 81.398438 C 96.097656 80.859375 96.285156 80.167969 96.824219 79.855469 C 103.839844 75.800781 111.851562 73.652344 120 73.652344 C 145.554688 73.652344 166.347656 94.445312 166.347656 120 C 166.347656 145.554688 145.554688 166.347656 120 166.347656 Z M 120 166.347656 "/>
</g>
</svg>
